REM DIRINDEX 1\2,1\3,1\4
REM DIRNAME folder01,folder02,folder03,folder04
TITLE ""
FILE "DISC1Track10.mp3" MP3
  TRACK 01 AUDIO
    TITLE "0:"
    INDEX 01 00:00:00
  TRACK 02 AUDIO
    TITLE "4:cjc105_0693"
    INDEX 01 00:00:13
  TRACK 03 AUDIO
    TITLE "0:"
    INDEX 01 00:07:39
  TRACK 04 AUDIO
    TITLE "2:cjc105_0694"
    INDEX 01 00:08:05
  TRACK 05 AUDIO
    TITLE "2:cjc105_0695"
    INDEX 01 00:11:37
  TRACK 06 AUDIO
    TITLE "2:cjc105_0696"
    INDEX 01 00:16:24
  TRACK 07 AUDIO
    TITLE "2:cjc105_0697"
    INDEX 01 00:19:56
  TRACK 08 AUDIO
    TITLE "2:cjc105_0698"
    INDEX 01 00:23:22
  TRACK 09 AUDIO
    TITLE "2:cjc105_0699"
    INDEX 01 00:26:38
  TRACK 10 AUDIO
    TITLE "2:cjc105_0700"
    INDEX 01 00:31:08
  TRACK 11 AUDIO
    TITLE "2:cjc105_0701"
    INDEX 01 00:34:49
  TRACK 12 AUDIO
    TITLE "2:cjc105_0702"
    INDEX 01 00:37:52
  TRACK 13 AUDIO
    TITLE "2:cjc105_0703"
    INDEX 01 00:40:62
  TRACK 14 AUDIO
    TITLE "2:cjc105_0704"
    INDEX 01 00:44:01
  TRACK 15 AUDIO
    TITLE "2:cjc105_0705"
    INDEX 01 00:47:48
  TRACK 16 AUDIO
    TITLE "2:cjc105_0706"
    INDEX 01 00:51:22
  TRACK 17 AUDIO
    TITLE "2:cjc105_0707"
    INDEX 01 00:55:04
  TRACK 18 AUDIO
    TITLE "2:cjc105_0708"
    INDEX 01 00:58:28
  TRACK 19 AUDIO
    TITLE "2:cjc105_0709"
    INDEX 01 01:02:57
  TRACK 20 AUDIO
    TITLE "2:cjc105_0710"
    INDEX 01 01:06:36
  TRACK 21 AUDIO
    TITLE "2:cjc105_0711"
    INDEX 01 01:09:61
  TRACK 22 AUDIO
    TITLE "2:cjc105_0712"
    INDEX 01 01:12:66
  TRACK 23 AUDIO
    TITLE "2:cjc105_0713"
    INDEX 01 01:15:60
  TRACK 24 AUDIO
    TITLE "2:cjc105_0714"
    INDEX 01 01:19:27
  TRACK 25 AUDIO
    TITLE "2:cjc105_0715"
    INDEX 01 01:23:54
  TRACK 26 AUDIO
    TITLE "2:cjc105_0716"
    INDEX 01 01:26:58
  TRACK 27 AUDIO
    TITLE "2:cjc105_0717"
    INDEX 01 01:30:24
  TRACK 28 AUDIO
    TITLE "2:cjc105_0718"
    INDEX 01 01:34:08
  TRACK 29 AUDIO
    TITLE "2:cjc105_0719"
    INDEX 01 01:37:56
  TRACK 30 AUDIO
    TITLE "2:cjc105_0720"
    INDEX 01 01:41:26
  TRACK 31 AUDIO
    TITLE "2:cjc105_0721"
    INDEX 01 01:44:52
  TRACK 32 AUDIO
    TITLE "2:cjc105_0722"
    INDEX 01 01:48:18
  TRACK 33 AUDIO
    TITLE "2:cjc105_0723"
    INDEX 01 01:51:19
  TRACK 34 AUDIO
    TITLE "2:cjc105_0724"
    INDEX 01 01:54:33
  TRACK 35 AUDIO
    TITLE "2:cjc105_0725"
    INDEX 01 01:57:72
  TRACK 36 AUDIO
    TITLE "2:cjc105_0726"
    INDEX 01 02:01:05
  TRACK 37 AUDIO
    TITLE "2:cjc105_0727"
    INDEX 01 02:04:70
  TRACK 38 AUDIO
    TITLE "2:cjc105_0728"
    INDEX 01 02:08:43
  TRACK 39 AUDIO
    TITLE "2:cjc105_0729"
    INDEX 01 02:11:70
  TRACK 40 AUDIO
    TITLE "2:cjc105_0730"
    INDEX 01 02:15:41
  TRACK 41 AUDIO
    TITLE "2:cjc105_0731"
    INDEX 01 02:19:23
  TRACK 42 AUDIO
    TITLE "2:cjc105_0732"
    INDEX 01 02:22:53
  TRACK 43 AUDIO
    TITLE "2:cjc105_0733"
    INDEX 01 02:25:55
  TRACK 44 AUDIO
    TITLE "2:cjc105_0734"
    INDEX 01 02:29:23
  TRACK 45 AUDIO
    TITLE "2:cjc105_0735"
    INDEX 01 02:32:51
  TRACK 46 AUDIO
    TITLE "2:cjc105_0736"
    INDEX 01 02:36:33
  TRACK 47 AUDIO
    TITLE "2:cjc105_0737"
    INDEX 01 02:40:33
  TRACK 48 AUDIO
    TITLE "2:cjc105_0738"
    INDEX 01 02:44:01
  TRACK 49 AUDIO
    TITLE "2:cjc105_0739"
    INDEX 01 02:47:43
  TRACK 50 AUDIO
    TITLE "2:cjc105_0740"
    INDEX 01 02:50:66
  TRACK 51 AUDIO
    TITLE "2:cjc105_0741"
    INDEX 01 02:54:06
  TRACK 52 AUDIO
    TITLE "2:cjc105_0742"
    INDEX 01 02:57:67
  TRACK 53 AUDIO
    TITLE "2:cjc105_0743"
    INDEX 01 03:01:17
  TRACK 54 AUDIO
    TITLE "2:cjc105_0744"
    INDEX 01 03:04:74
  TRACK 55 AUDIO
    TITLE "2:cjc105_0745"
    INDEX 01 03:08:47
  TRACK 56 AUDIO
    TITLE "2:cjc105_0746"
    INDEX 01 03:12:47
  TRACK 57 AUDIO
    TITLE "2:cjc105_0747"
    INDEX 01 03:16:23
  TRACK 58 AUDIO
    TITLE "2:cjc105_0748"
    INDEX 01 03:19:45
  TRACK 59 AUDIO
    TITLE "2:cjc105_0749"
    INDEX 01 03:23:15
  TRACK 60 AUDIO
    TITLE "2:cjc105_0750"
    INDEX 01 03:26:49
  TRACK 61 AUDIO
    TITLE "2:cjc105_0751"
    INDEX 01 03:29:65
  TRACK 62 AUDIO
    TITLE "2:cjc105_0752"
    INDEX 01 03:33:15
  TRACK 63 AUDIO
    TITLE "2:cjc105_0753"
    INDEX 01 03:36:37
  TRACK 64 AUDIO
    TITLE "2:cjc105_0754"
    INDEX 01 03:40:70
  TRACK 65 AUDIO
    TITLE "2:cjc105_0755"
    INDEX 01 03:44:33
  TRACK 66 AUDIO
    TITLE "2:cjc105_0756"
    INDEX 01 03:47:53
  TRACK 67 AUDIO
    TITLE "2:cjc105_0757"
    INDEX 01 03:51:52
  TRACK 68 AUDIO
    TITLE "2:cjc105_0758"
    INDEX 01 03:54:61
  TRACK 69 AUDIO
    TITLE "2:cjc105_0759"
    INDEX 01 03:58:35
  TRACK 70 AUDIO
    TITLE "2:cjc105_0760"
    INDEX 01 04:01:65
  TRACK 71 AUDIO
    TITLE "2:cjc105_0761"
    INDEX 01 04:04:51
  TRACK 72 AUDIO
    TITLE "2:cjc105_0762"
    INDEX 01 04:08:65
  TRACK 73 AUDIO
    TITLE "2:cjc105_0763"
    INDEX 01 04:12:19
  TRACK 74 AUDIO
    TITLE "2:cjc105_0764"
    INDEX 01 04:16:01
  TRACK 75 AUDIO
    TITLE "2:cjc105_0765"
    INDEX 01 04:19:10
  TRACK 76 AUDIO
    TITLE "2:cjc105_0766"
    INDEX 01 04:22:00
  TRACK 77 AUDIO
    TITLE "0:"
    INDEX 01 04:25:24
